<svg xmlns="http://www.w3.org/2000/svg" xmlns:xlink="http://www.w3.org/1999/xlink" width="256" height="189" preserveAspectRatio="xMidYMid" version="1.1" viewBox="0 0 256 189"><defs><path id="path-1" d="M5.29550498,85.9528279 C2.23483167,91.2589484 2.23483167,97.7950592 5.29550498,103.101179 L53.1507054,186.054008 L113.005461,186.054008 L30.2671667,42.6457308 L5.29550498,85.9528279 Z"/><filter id="filter-2" width="106.8%" height="105.3%" x="-3.3%" y="-2.8%" filterUnits="objectBoundingBox"><feMorphology in="SourceAlpha" operator="dilate" radius=".2" result="shadowSpreadOuter1"/><feOffset dx="0" dy="0" in="shadowSpreadOuter1" result="shadowOffsetOuter1"/><feGaussianBlur in="shadowOffsetOuter1" result="shadowBlurOuter1" stdDeviation="1"/><feColorMatrix in="shadowBlurOuter1" type="matrix" values="0 0 0 0 0 0 0 0 0 0 0 0 0 0 0 0 0 0 0.3 0"/></filter><radialGradient id="radialGradient-3" cx=".749%" cy="1.901%" r="59.869%" fx=".749%" fy="1.901%" gradientTransform="translate(0.007486,0.019006),scale(1.000000,0.731512),rotate(180.000000),translate(-0.007486,-0.019006)"><stop offset="0%" stop-color="#3E2723" stop-opacity=".2"/><stop offset="100%" stop-color="#3E2723" stop-opacity=".02"/></radialGradient><path id="path-4" d="M252.409119,103.115482 C255.469792,97.8093614 255.469792,91.2732507 252.409119,85.9671302 L204.553918,3.01430221 L144.699162,3.01430221 L227.437457,146.436881 C227.437457,146.436881 252.409119,103.115482 252.409119,103.115482 Z"/><filter id="filter-5" width="106.8%" height="105.3%" x="-3.5%" y="-2.5%" filterUnits="objectBoundingBox"><feMorphology in="SourceAlpha" operator="dilate" radius=".2" result="shadowSpreadOuter1"/><feOffset dx="0" dy="0" in="shadowSpreadOuter1" result="shadowOffsetOuter1"/><feGaussianBlur in="shadowOffsetOuter1" result="shadowBlurOuter1" stdDeviation="1"/><feColorMatrix in="shadowBlurOuter1" type="matrix" values="0 0 0 0 0 0 0 0 0 0 0 0 0 0 0 0 0 0 0.3 0"/></filter><radialGradient id="radialGradient-6" cx="99.01%" cy="97.909%" r="59.869%" fx="99.01%" fy="97.909%" gradientTransform="translate(0.990105,0.979091),scale(1.000000,0.731512),translate(-0.990105,-0.979091)"><stop offset="0%" stop-color="#BF360C" stop-opacity=".2"/><stop offset="100%" stop-color="#BF360C" stop-opacity=".02"/></radialGradient></defs><g><polygon fill="#DB4437" fill-rule="nonzero" points="53.136 3 30.267 42.646 60.202 94.534 113.005 3"/><g><use fill="#000" fill-opacity="1" filter="url(#filter-2)" xlink:href="#path-1"/><use fill="#4285F4" xlink:href="#path-1"/></g><path fill="#1A237E" fill-rule="nonzero" d="M5.29550498,101.685261 C3.89388823,99.2395826 3.16447544,96.5507668 3.05005774,93.8190444 C2.92133784,97.0227398 3.65075063,100.240737 5.29550498,103.115482 L53.1507054,186.06831 L113.005461,186.06831 L112.175934,184.638089 L53.1364032,184.638089 C53.1364032,184.638089 5.29550498,101.685261 5.29550498,101.685261 Z" opacity=".2"/><polygon fill="#FFF" fill-rule="nonzero" points="30.682 43.375 53.136 4.43 112.176 4.43 113.005 3 53.136 3 30.267 42.646" opacity=".2"/><polygon fill="#3E2723" fill-rule="nonzero" points="112.176 3 59.801 93.805 60.202 94.534 113.005 3" opacity=".2"/><path fill="#FFF" fill-rule="nonzero" d="M5.29550498,87.3830491 L30.2814688,44.0759521 L112.175934,186.06831 L113.005461,186.06831 L30.2671667,42.6457308 L5.29550498,85.9528279 C3.63644842,88.8275725 2.90703562,92.0455701 3.05005774,95.2492656 C3.15017322,92.5318453 3.87958602,89.8287273 5.29550498,87.3830491 Z" opacity=".2"/><polygon fill="url(#radialGradient-3)" fill-rule="nonzero" points="30.31 42.703 60.202 94.534 68.225 80.632"/><polygon fill="#FFC107" fill-rule="nonzero" points="204.568 186.068 227.437 146.423 197.503 94.534 144.699 186.068"/><g><use fill="#000" fill-opacity="1" filter="url(#filter-5)" xlink:href="#path-4"/><use fill="#0F9D58" xlink:href="#path-4"/></g><path fill="#FFF" fill-rule="nonzero" d="M252.409119,87.3830491 C253.810735,89.8287273 254.540148,92.5175431 254.654566,95.2492656 C254.783286,92.0455701 254.053873,88.8275725 252.409119,85.9528279 L204.553918,3 L144.699162,3 L145.52869,4.43022117 L204.56822,4.43022117 L252.409119,87.3830491 Z" opacity=".2"/><polygon fill="#FFF" fill-rule="nonzero" points="145.529 186.068 197.918 95.264 197.503 94.534 144.699 186.068" opacity=".2"/><path fill="#263238" fill-rule="nonzero" d="M252.409119,101.685261 L227.423155,144.992358 L145.52869,3 L144.699162,3 L227.437457,146.422579 L252.409119,103.115482 C254.068175,100.240737 254.797588,97.0227398 254.654566,93.8190444 C254.55445,96.5364646 253.825038,99.2395826 252.409119,101.685261 Z" opacity=".2"/><polygon fill="url(#radialGradient-6)" fill-rule="nonzero" points="227.395 146.365 197.503 94.534 189.479 108.436"/></g></svg>